<svg id="Layer_1" data-name="Layer 1" xmlns="http://www.w3.org/2000/svg" viewBox="0 0 500.5 92.55"><defs><style>.cls-1{fill:#fff}</style></defs><path class="cls-1" d="M136.55 14.34l8.27 6.25-5 6.43a19.33 19.33 0 0 1 4.78 13.42c0 5.61-2.12 13.51-9.56 16.91 7.53 3.77 9.37 9.19 9.37 15 0 12.5-9.56 20.22-22.7 20.22s-23-8-23-20.22h11.09c0 5.88 5.43 9.74 11.86 9.74s11.49-3.49 11.49-9.74-5.88-9.1-11.49-9.1c-14.15 0-23-8.64-23-22.79s10.3-23 23-23c3.58 0 7.26.46 10.39 2.58zm-26.75 26.1c0 7.9 5.33 12.59 11.86 12.59s11.76-4.78 11.76-12.59-5.33-12.78-11.76-12.78-11.86 4.88-11.86 12.78zm77.85-21.51h10.75v45.31h-10.57l-.55-6.61c-2.57 5.33-9.65 7.9-14.7 8-13.42.09-23.35-8.18-23.35-24.08 0-15.62 10.39-23.8 23.62-23.71 6.07 0 11.86 2.85 14.43 7.35zm-27.21 22.61c0 8.64 6 13.79 13.42 13.79 17.65 0 17.65-27.48 0-27.48-7.44 0-13.42 5.05-13.42 13.69zM238 64.24V40c0-6-3.12-11.4-9.28-11.4s-9.64 5.4-9.64 11.4v24.24h-11.21v-45.4h10.38l.83 5.52c2.39-4.6 7.63-6.25 11.95-6.25 5.42 0 10.84 2.2 13.42 8.45 4-6.43 9.28-8.27 15.16-8.27 12.87 0 19.21 7.9 19.21 21.51v24.44h-11.21V39.8c0-6-2.48-11-8.55-11s-9.83 5.2-9.83 11.2v24.24zm61.77-18.65c.74 5.6 5.61 9.65 13.51 9.65 4.14 0 9.56-1.57 12.14-4.23l7.16 7.08c-4.77 5-12.59 7.35-19.48 7.35-15.62 0-24.91-9.65-24.91-24.17 0-13.79 9.38-23.72 24.08-23.72 15.17 0 24.63 9.38 22.89 28zm24.63-9.29c-.73-5.88-5.33-8.82-11.76-8.82-6.07 0-11 2.94-12.68 8.82zM390.85 0v64.24h-10.47l-.74-6.24c-3.49 5.43-9.1 7.26-14.61 7.26-13.33 0-23.35-8.82-23.35-23.71 0-15.62 9.84-23.71 23.07-23.71 4.78 0 12.23 2.57 14.89 7.26V0zm-38 41.54c0 7.91 5.69 13.33 12.86 13.33a12.84 12.84 0 0 0 13.19-13.33 12.92 12.92 0 0 0-13.14-13.23c-7.17 0-12.86 5.05-12.86 13.23zm83.68-22.61h10.75v45.31h-10.57l-.55-6.61c-2.57 5.33-9.65 7.9-14.7 8-13.42.09-23.35-8.18-23.35-24.08 0-15.62 10.39-23.8 23.62-23.71 6.07 0 11.86 2.85 14.43 7.35zm-27.2 22.61c0 8.64 6 13.79 13.41 13.79 17.65 0 17.65-27.48 0-27.48-7.44 0-13.41 5.05-13.41 13.69zm91.17-22.61l-30 69.34h-12.28L469 63.51l-18.1-44.58h13.05l6.89 19.58 4.32 12.77 4.69-12.49 8.27-19.86zM0 13h76.71v76.71H0z"/><path d="M29.78 58.77a7.61 7.61 0 0 0 3.49-3.21c-3 2.29-6.11 4.93-9.65 6.22 2.65.2 5.22 1.66 5.22 4.6 0 3.18-2.56 5-5.83 5s-6-2-6-5h-5.68c0 6.21 5 10.27 11.68 10.27s11.53-3.92 11.53-10.27a7.75 7.75 0 0 0-4.76-7.61zm-7.85-23.51h1.57v6.39h-1.57z"/><path transform="rotate(90 22.72 34.73)" d="M22.11 31.53h1.22v6.39h-1.22z"/><path stroke="#000" stroke-miterlimit="10" fill="none" stroke-width="4" d="M4.9 18.08h66.85v66.85H4.9z"/><path d="M71.43 66.33c-10.8.55-21.13-1.7-29.52 5.42C40 73.33 37 76.36 35.13 78a25.66 25.66 0 0 1-20.62 6.18h57.24z"/><ellipse class="cls-1" cx="59.32" cy="71.35" rx="6.1" ry="1.69"/><text transform="translate(44.62 81.35)" font-size="7.46" stroke-width=".5" font-family="NexaBold,Nexa Bold" letter-spacing=".18em" stroke="#000" stroke-miterlimit="10">GOLF</text><circle cx="22.72" cy="50.11" r="11.91"/><circle class="cls-1" cx="22.72" cy="50.11" r="5.83"/><circle cx="49.42" cy="50.11" r="11.91"/><circle class="cls-1" cx="49.42" cy="50.11" r="5.83"/><path d="M57.03 18.08h6.08v43.6h-6.08z"/><circle cx="22.72" cy="29.34" r="3.85"/><circle class="cls-1" cx="21.25" cy="27.22" r=".56"/><path class="cls-1" d="M19.66 27.62h.08a.57.57 0 0 0 .57-.56.5.5 0 0 0-.08-.27 2.68 2.68 0 0 0-.57.83zm1.54-1.53l.06.06a.56.56 0 0 0 .79-.07.49.49 0 0 0 .12-.25 2.65 2.65 0 0 0-.97.26zm1.95-.2a.19.19 0 0 0 0 .08.55.55 0 0 0 .71.36.53.53 0 0 0 .23-.16 2.81 2.81 0 0 0-.94-.28zm-3.87 4.32l.06-.06a.56.56 0 0 0 0-.79.49.49 0 0 0-.24-.14 2.68 2.68 0 0 0 .18.99zm.98 1.66a.25.25 0 0 0 0-.07.57.57 0 0 0-.35-.72.68.68 0 0 0-.28 0 2.55 2.55 0 0 0 .63.79z"/><circle class="cls-1" cx="20.03" cy="28.58" r=".56"/><circle class="cls-1" cx="21.94" cy="28.73" r=".56"/><circle class="cls-1" cx="20.55" cy="30.07" r=".56"/><circle class="cls-1" cx="23.07" cy="27.21" r=".56"/><path class="cls-1" d="M305.05 79.81a4.31 4.31 0 0 0-2.89-1.14 3.88 3.88 0 0 0-3.91 4.19 3.6 3.6 0 0 0 3.91 3.8 3.8 3.8 0 0 0 2.57-.91v-2h-2.91v-1.93h4.87v4.79a5.66 5.66 0 0 1-4.53 2c-4.27 0-6-2.8-6-5.79 0-3.2 2-6.16 6-6.16a6 6 0 0 1 4.23 1.74zm17.82 2.97c0 2.94-1.84 5.87-5.83 5.87a5.54 5.54 0 0 1-5.85-5.86 5.84 5.84 0 1 1 11.68 0zm-9.56 0c0 1.86 1.05 3.86 3.73 3.86s3.68-2 3.72-3.88-1-4.06-3.72-4.06a3.69 3.69 0 0 0-3.73 4.13zM329.84 77v9.38h5.84v2h-8V77zm10.6 11.39V77.05h8.17v2.06h-6v3.1h5.7v2h-5.7v4.2zM369.88 87a6 6 0 0 1-4.32 1.68c-4.22 0-6-2.9-6-5.86a5.71 5.71 0 0 1 6-6 5.88 5.88 0 0 1 4.17 1.74l-1.42 1.38a3.93 3.93 0 0 0-2.75-1.07 3.72 3.72 0 0 0-3.91 3.94 3.64 3.64 0 0 0 3.91 3.85 4.23 4.23 0 0 0 2.86-1.15zm6.43-10v9.38h5.85v2h-8V77zM395 86.25h-6l-1 2.14h-2.32L390.85 77h2.33l5.1 11.36h-2.34zm-3-6.83l-2.12 4.83h4.23zm17.34.35a3.25 3.25 0 0 0-2.69-1.26c-1.59 0-2.36.66-2.36 1.51s1.17 1.26 2.54 1.42c2.37.3 4.57.92 4.57 3.63 0 2.53-2.24 3.62-4.77 3.62-2.32 0-4.11-.72-4.95-2.8l1.79-.92a3.22 3.22 0 0 0 3.19 1.8c1.35 0 2.62-.47 2.62-1.7 0-1.08-1.12-1.51-2.63-1.68-2.33-.27-4.47-.89-4.47-3.44 0-2.34 2.31-3.29 4.4-3.31 1.77 0 3.61.5 4.47 2.26zm13.98 0a3.25 3.25 0 0 0-2.69-1.26c-1.59 0-2.36.66-2.36 1.51s1.17 1.26 2.54 1.42c2.37.3 4.58.92 4.58 3.63 0 2.53-2.25 3.62-4.78 3.62-2.32 0-4.11-.72-4.95-2.8l1.79-.92a3.23 3.23 0 0 0 3.19 1.8c1.35 0 2.62-.47 2.62-1.7 0-1.08-1.12-1.51-2.63-1.68-2.32-.27-4.47-.89-4.47-3.44 0-2.34 2.31-3.29 4.4-3.31 1.77 0 3.61.5 4.47 2.26zm6.99 8.62V77h2.12v11.39zm17.4-1.39a6 6 0 0 1-4.31 1.68c-4.23 0-6-2.9-6-5.86a5.73 5.73 0 0 1 6-6 5.88 5.88 0 0 1 4.17 1.74l-1.43 1.38a3.9 3.9 0 0 0-2.74-1.07 3.73 3.73 0 0 0-3.92 3.94 3.65 3.65 0 0 0 3.92 3.85 4.18 4.18 0 0 0 2.85-1.15z"/><path fill="#5bd8b4" d="M278.49 77.44v11.72l11.94-5.93-11.94-5.79z"/></svg>