<svg xmlns="http://www.w3.org/2000/svg" viewBox="0 0 46.12 46"><g data-name="Layer 2"><g data-name="Layer 1"><path d="M36.1 2.56H10A7.46 7.46 0 0 0 2.56 10v26A7.46 7.46 0 0 0 10 43.44h26.1A7.46 7.46 0 0 0 43.56 36V10a7.46 7.46 0 0 0-7.46-7.44z"/><path d="M37.73 0H8.4A8.4 8.4 0 0 0 0 8.4v29.2A8.4 8.4 0 0 0 8.4 46h29.33a8.4 8.4 0 0 0 8.39-8.4V8.4A8.39 8.39 0 0 0 37.73 0zM38 19.08L22.14 34.94a3.59 3.59 0 0 1-5.07 0L9.2 27.08A3.59 3.59 0 0 1 14.28 22L19 26.69a.91.91 0 0 0 1.29 0L32.93 14A3.59 3.59 0 0 1 38 19.08z" fill="#5bd8b4"/></g></g></svg>