<svg data-name="Layer 1" xmlns="http://www.w3.org/2000/svg" viewBox="0 0 450 450"><path d="M288.6 258.14l-21-16.66V201a6.27 6.27 0 0 0-6.27-6.27h-18.5v-43.72l35.18-13a18.25 18.25 0 0 0 10.79-23.42l-3-8.22a18.23 18.23 0 0 0-23.42-10.78L255.92 98a39 39 0 0 0-25.46 36.71c-.05.32-.09 5.75-.09 5.75l-.05 54.28h-6.55L223.69 80l36.69-13.61c11.56-4.29 15.14-15.07 13.56-23.85A20.76 20.76 0 0 0 253.4 25c-.59 0-1.19 0-1.79.07a45.84 45.84 0 0 0-12.47 2.74 43.68 43.68 0 0 0-23.48 20.07 37 37 0 0 0-4.5 16.56l.07 130.25h-6.67l-.07-67.79s-.09-7.46-.24-8a39 39 0 0 0-25.31-33l-6.49-2.39a18 18 0 0 0-6.32-1.14A18.3 18.3 0 0 0 149 94.3l-3 8.22a18.24 18.24 0 0 0 10.78 23.42l35.19 13 .05 55.76h-17.76A6.27 6.27 0 0 0 168 201v43.19h-1.37a6.27 6.27 0 0 0-6.27 6.27v111.79a6.27 6.27 0 0 0 6.27 6.27H168v15A41.53 41.53 0 0 0 209.48 425h51.89a6.27 6.27 0 0 0 6.26-6.27v-28a43.83 43.83 0 0 0 37.5-43.31v-55a43.52 43.52 0 0 0-16.53-34.28zm-28.34-148.43l6.5-2.39a5.58 5.58 0 0 1 2-.36 5.72 5.72 0 0 1 5.34 3.73l3 8.21a5.7 5.7 0 0 1-3.37 7.32l-30.56 11.28a26.46 26.46 0 0 1 17.09-27.79zm-33.55-55.9a31.18 31.18 0 0 1 16.8-14.25 33.15 33.15 0 0 1 9-2h.85c5.1 0 7.58 3.7 8.21 7.17a8.46 8.46 0 0 1-5.6 9.88l-32.27 12a24 24 0 0 1 3.01-12.8zm-35 71.66l-30.57-11.29a5.7 5.7 0 0 1-3.37-7.32l3-8.21a5.72 5.72 0 0 1 5.34-3.73 5.64 5.64 0 0 1 2 .36l6.49 2.39a26.45 26.45 0 0 1 17.1 27.8zm63.4 81.76v9.1h-74.58v-9.1zM172.89 356v-99.31h28.32v83.19A16.12 16.12 0 0 1 185.1 356zm36.59 56.48a29 29 0 0 1-28.95-28.95v-15h4.57a28.68 28.68 0 0 0 28.65-28.64v-89.47a6.27 6.27 0 0 0-6.27-6.27h-26.95v-15.28h74.57v183.59zm58.15-155l8.65 6.87v110.46a31 31 0 0 1-8.65 3.17V257.49zm25 89.89a31 31 0 0 1-3.78 14.88v-84.76a31.18 31.18 0 0 1 3.78 14.91z" fill="#212121"/></svg>