<svg data-name="Layer 1" xmlns="http://www.w3.org/2000/svg" viewBox="0 0 160.27 400"><path d="M143.73 233.14l-21-16.66V176a6.27 6.27 0 0 0-6.27-6.27H98V126l35.18-13A18.23 18.23 0 0 0 144 89.56l-3-8.22a18.22 18.22 0 0 0-23.41-10.78L111.05 73a39 39 0 0 0-25.46 36.71c0 .32-.08 5.75-.08 5.75l-.06 54.28H78.9L78.83 55l36.68-13.61c11.56-4.29 15.15-15.07 13.57-23.85A20.77 20.77 0 0 0 108.53 0c-.59 0-1.19 0-1.79.07a45.69 45.69 0 0 0-12.46 2.74A43.64 43.64 0 0 0 70.8 22.88a36.85 36.85 0 0 0-4.51 16.56l.08 130.25h-6.68l-.06-67.79s-.1-7.46-.24-8A39 39 0 0 0 56 81.16a38.73 38.73 0 0 0-21.93-20.25l-6.49-2.39a18 18 0 0 0-6.31-1.14A18.32 18.32 0 0 0 4.16 69.3l-3 8.22a18.26 18.26 0 0 0 10.79 23.42l35.18 13 .06 55.76h-17.8a6.27 6.27 0 0 0-6.27 6.3v43.19h-1.37a6.27 6.27 0 0 0-6.27 6.27v111.79a6.27 6.27 0 0 0 6.27 6.27h1.37v15A41.54 41.54 0 0 0 64.61 400h51.89a6.27 6.27 0 0 0 6.27-6.27v-28a43.83 43.83 0 0 0 37.5-43.31v-55a43.53 43.53 0 0 0-16.54-34.28zM115.4 84.71l6.49-2.39a5.58 5.58 0 0 1 2-.36 5.71 5.71 0 0 1 5.34 3.73l3 8.21a5.7 5.7 0 0 1-3.37 7.32L98.3 112.5a26.47 26.47 0 0 1 17.1-27.79zm-33.56-55.9a31.22 31.22 0 0 1 16.8-14.25 33.22 33.22 0 0 1 9-2h.84c5.1 0 7.59 3.7 8.21 7.17a8.46 8.46 0 0 1-5.59 9.88l-32.28 12a24 24 0 0 1 3.02-12.8zm-35 71.66L16.26 89.18a5.7 5.7 0 0 1-3.37-7.32l3-8.21a5.73 5.73 0 0 1 5.35-3.73 5.58 5.58 0 0 1 2 .36l6.49 2.39a26.45 26.45 0 0 1 17.1 27.8zm63.4 81.76v9.1H35.66v-9.1zM28 331v-99.31h28.34v83.19A16.12 16.12 0 0 1 40.24 331zm36.59 56.48a29 29 0 0 1-28.95-28.95v-15h4.58a28.68 28.68 0 0 0 28.64-28.64v-89.47a6.27 6.27 0 0 0-6.27-6.27H35.66v-15.28h74.57v183.59zm58.16-155l8.64 6.87v110.46a31 31 0 0 1-8.64 3.17V232.49zm25 89.89a31 31 0 0 1-3.75 14.89v-84.77a31.18 31.18 0 0 1 3.78 14.91z" fill="#212121"/></svg>