<svg data-name="Layer 1" xmlns="http://www.w3.org/2000/svg" viewBox="0 0 450 450"><path d="M89.68 245.68l-13.08-10.4V210a3.91 3.91 0 0 0-3.91-3.91H61.14v-27.28l22-8.11a11.37 11.37 0 0 0 6.73-14.61L88 151a11.4 11.4 0 0 0-14.62-6.73l-4 1.5a24.34 24.34 0 0 0-15.88 22.9c0 .2-.06 3.59-.06 3.59v33.87h-4.21v-71.59L72.07 126a13.32 13.32 0 0 0-4.35-25.8H66.6a28.85 28.85 0 0 0-7.78 1.8 27.31 27.31 0 0 0-14.65 12.52 23 23 0 0 0-2.8 10.34v81.27h-4.12v-42.3s-.05-4.66-.14-5a24.65 24.65 0 0 0-2.14-8 24.12 24.12 0 0 0-13.66-12.63l-4.05-1.5a11.3 11.3 0 0 0-3.94-.71 11.42 11.42 0 0 0-10.72 7.46l-1.9 5.13a11.39 11.39 0 0 0 6.74 14.61l22 8.11v34.79h-11.1a3.91 3.91 0 0 0-3.91 3.91v27h-.86a3.91 3.91 0 0 0-3.91 3.91v69.78a3.91 3.91 0 0 0 3.91 3.91h.86v9.35a25.91 25.91 0 0 0 25.89 25.89h32.37a3.91 3.91 0 0 0 3.91-3.91v-17.5a27.34 27.34 0 0 0 23.4-27v-34.3a27.15 27.15 0 0 0-10.32-21.45zM72 153.07l4-1.5a3.56 3.56 0 0 1 4.57 2.1l1.89 5.13a3.53 3.53 0 0 1-2.1 4.56l-19.07 7A16.5 16.5 0 0 1 72 153.07zm-20.93-34.89a19.41 19.41 0 0 1 10.48-8.88 20.17 20.17 0 0 1 5.64-1.25h.53a5.08 5.08 0 0 1 5.12 4.48 5.27 5.27 0 0 1-3.49 6.16l-20.14 7.48a15 15 0 0 1 1.86-7.99zM29.22 162.9l-19.07-7.05A3.56 3.56 0 0 1 8 151.29l1.9-5.13a3.56 3.56 0 0 1 3.33-2.32 3.47 3.47 0 0 1 1.23.22l4.05 1.49a16.39 16.39 0 0 1 9.26 8.57 16.29 16.29 0 0 1 1.45 8.78zm39.56 51v5.68H22.25v-5.68zm-51.3 92.82v-62h17.68v51.91a10.06 10.06 0 0 1-10 10.05zM40.32 342a18.08 18.08 0 0 1-18.07-18.1v-9.35h2.86A17.89 17.89 0 0 0 43 296.68v-55.82a3.91 3.91 0 0 0-3.93-3.86H22.25v-9.54h46.53V342zm36.28-96.7l5.4 4.29v68.92a19.29 19.29 0 0 1-5.4 2v-75.24zm15.58 56.09a19.45 19.45 0 0 1-2.36 9.29v-52.9a19.45 19.45 0 0 1 2.36 9.31zm114.17-55.71l-13.08-10.4V210a3.91 3.91 0 0 0-3.91-3.91h-11.55v-27.28l21.95-8.11a11.37 11.37 0 0 0 6.73-14.61l-1.9-5.13a11.39 11.39 0 0 0-14.59-6.73l-4 1.5a24.35 24.35 0 0 0-15.89 22.9v37.46h-4.21l-.05-71.59 22.89-8.5a13.32 13.32 0 0 0-4.36-25.8h-1.11a28.85 28.85 0 0 0-7.78 1.71 27.28 27.28 0 0 0-14.65 12.52 23.11 23.11 0 0 0-2.84 10.39l.05 81.27h-4.17v-42.3s-.06-4.66-.15-5a24.37 24.37 0 0 0-15.79-20.58l-4.05-1.5a11.37 11.37 0 0 0-14.62 6.73l-1.89 5.13a11.39 11.39 0 0 0 6.73 14.61l22 8.11v34.79H135a3.91 3.91 0 0 0-3.9 3.92v27h-.86a3.91 3.91 0 0 0-3.91 3.91v69.78a3.91 3.91 0 0 0 3.91 3.91h.86v9.35a25.91 25.91 0 0 0 25.9 25.84h32.38a3.91 3.91 0 0 0 3.91-3.91v-17.5a27.34 27.34 0 0 0 23.4-27v-34.3a27.15 27.15 0 0 0-10.34-21.4zm-17.68-92.61l4.05-1.5a3.47 3.47 0 0 1 1.23-.22 3.58 3.58 0 0 1 3.34 2.32l1.89 5.13a3.55 3.55 0 0 1-2.1 4.56l-19.08 7a16.52 16.52 0 0 1 10.67-17.29zm-20.94-34.89a19.45 19.45 0 0 1 10.48-8.88 20.32 20.32 0 0 1 5.65-1.25h.52a5.08 5.08 0 0 1 5.13 4.48 5.28 5.28 0 0 1-3.49 6.16l-20.14 7.48a15 15 0 0 1 1.85-7.99zm-21.84 44.72l-19.08-7.05a3.55 3.55 0 0 1-2.1-4.56l1.89-5.13a3.58 3.58 0 0 1 3.34-2.32 3.51 3.51 0 0 1 1.23.22l4.05 1.49a16.51 16.51 0 0 1 10.67 17.35zm39.56 51v5.68h-46.53v-5.68zm-51.3 92.82v-62h17.67v51.91a10.06 10.06 0 0 1-10 10.05zM157 342a18.08 18.08 0 0 1-18.06-18.07v-9.35h2.85a17.9 17.9 0 0 0 17.88-17.87v-55.85a3.92 3.92 0 0 0-3.92-3.91h-16.83v-9.54h46.53V342zm36.29-96.7l5.39 4.29v68.92a19.22 19.22 0 0 1-5.39 2v-75.24zm15.57 56.09a19.44 19.44 0 0 1-2.35 9.29v-52.9a19.44 19.44 0 0 1 2.35 9.31zM323 245.68l-13.09-10.4V210a3.91 3.91 0 0 0-3.91-3.91h-11.53v-27.28l21.95-8.11a11.37 11.37 0 0 0 6.73-14.61l-1.86-5.09a11.41 11.41 0 0 0-10.67-7.43 11.29 11.29 0 0 0-3.94.7l-4.05 1.5a24.35 24.35 0 0 0-15.89 22.9c0 .2-.05 3.59-.05 3.59v33.87h-4.08l-.05-71.59 22.85-8.54a13.32 13.32 0 0 0-4.36-25.8h-1.11a28.77 28.77 0 0 0-7.78 1.71 27.24 27.24 0 0 0-14.65 12.52 23 23 0 0 0-2.81 10.34v81.27h-4.16v-42.3s-.06-4.66-.15-5a24.36 24.36 0 0 0-15.8-20.58l-4.05-1.5a11.3 11.3 0 0 0-3.94-.71 11.42 11.42 0 0 0-10.67 7.44l-1.93 5.19a11.38 11.38 0 0 0 6.73 14.61l22 8.11v34.79h-11.06a3.91 3.91 0 0 0-3.91 3.91v27h-.85a3.92 3.92 0 0 0-3.92 3.91v69.78a3.92 3.92 0 0 0 3.92 3.91h.85v9.35a25.92 25.92 0 0 0 25.89 25.89H306a3.92 3.92 0 0 0 3.92-3.91v-17.5a27.33 27.33 0 0 0 23.39-27v-34.3A27.17 27.17 0 0 0 323 245.68zm-17.68-92.61l4.05-1.5a3.47 3.47 0 0 1 1.23-.22 3.56 3.56 0 0 1 3.33 2.32l1.89 5.13a3.53 3.53 0 0 1-2.1 4.56l-19.07 7a16.51 16.51 0 0 1 10.69-17.29zm-20.92-34.89a19.41 19.41 0 0 1 10.48-8.88 20.32 20.32 0 0 1 5.65-1.25h.52a5.06 5.06 0 0 1 5.12 4.48 5.27 5.27 0 0 1-3.48 6.16l-20.14 7.48a14.88 14.88 0 0 1 1.85-7.99zm-21.84 44.72l-19.08-7.05a3.55 3.55 0 0 1-2.1-4.56l1.89-5.13a3.56 3.56 0 0 1 3.33-2.32 3.43 3.43 0 0 1 1.23.22l4 1.49a16.54 16.54 0 0 1 10.68 17.35zm39.55 51v5.68h-46.53v-5.68zm-51.29 92.82v-62h17.67v51.91a10.06 10.06 0 0 1-10.05 10.05zM273.65 342a18.09 18.09 0 0 1-18.07-18.07v-9.35h2.86a17.89 17.89 0 0 0 17.87-17.87v-55.85a3.91 3.91 0 0 0-3.91-3.86h-16.82v-9.54h46.53V342zm36.28-96.7l5.4 4.29v68.92a19.29 19.29 0 0 1-5.4 2v-75.24zm15.58 56.09a19.33 19.33 0 0 1-2.36 9.29v-52.9a19.45 19.45 0 0 1 2.36 9.31zm114.17-55.71l-13.08-10.4V210a3.91 3.91 0 0 0-3.91-3.91h-11.55v-27.28l21.95-8.11a11.37 11.37 0 0 0 6.73-14.61L438 151a11.4 11.4 0 0 0-14.62-6.73l-4 1.5a24.34 24.34 0 0 0-15.88 22.9c0 .2-.06 3.59-.06 3.59v33.87h-4.09v-71.59l22.72-8.54a13.32 13.32 0 0 0-4.35-25.8h-1.12a28.85 28.85 0 0 0-7.78 1.71 27.31 27.31 0 0 0-14.65 12.52 23 23 0 0 0-2.8 10.34v81.27h-4.16l-.05-42.3s-.05-4.66-.14-5a24.65 24.65 0 0 0-2.14-8 24.12 24.12 0 0 0-13.66-12.63l-4.05-1.5a11.3 11.3 0 0 0-3.94-.71 11.42 11.42 0 0 0-10.67 7.44l-1.9 5.13a11.39 11.39 0 0 0 6.74 14.61l21.95 8.11v34.79h-11.01a3.91 3.91 0 0 0-3.91 3.91V237h-.86a3.91 3.91 0 0 0-3.91 3.91v69.78a3.91 3.91 0 0 0 3.91 3.91h.86v9.35a25.91 25.91 0 0 0 25.89 25.89h32.37a3.91 3.91 0 0 0 3.91-3.91v-17.5a27.34 27.34 0 0 0 23.4-27v-34.3a27.15 27.15 0 0 0-10.32-21.45zM422 153.07l4.05-1.5a3.56 3.56 0 0 1 4.57 2.1l1.89 5.13a3.53 3.53 0 0 1-2.1 4.56l-19.07 7A16.5 16.5 0 0 1 422 153.07zm-20.93-34.89a19.41 19.41 0 0 1 10.48-8.88 20.17 20.17 0 0 1 5.64-1.25h.53a5.08 5.08 0 0 1 5.12 4.48 5.27 5.27 0 0 1-3.49 6.16l-20.14 7.48a15 15 0 0 1 1.86-7.99zm-21.85 44.72l-19.07-7.05a3.56 3.56 0 0 1-2.11-4.56l1.9-5.13a3.56 3.56 0 0 1 3.33-2.32 3.47 3.47 0 0 1 1.23.22l4.05 1.49a16.51 16.51 0 0 1 10.67 17.35zm39.56 51v5.68h-46.53v-5.68zm-51.3 92.82v-62h17.68v51.91a10.06 10.06 0 0 1-10.05 10.05zM390.32 342a18.08 18.08 0 0 1-18.07-18.07v-9.35h2.86a17.89 17.89 0 0 0 17.89-17.9v-55.82a3.91 3.91 0 0 0-3.91-3.91h-16.84v-9.54h46.53V342zm36.28-96.7l5.4 4.29v68.92a19.29 19.29 0 0 1-5.4 2v-75.24zm15.58 56.09a19.45 19.45 0 0 1-2.36 9.29v-52.9a19.45 19.45 0 0 1 2.36 9.31z" fill="#212121"/></svg>