<svg id="Layer_1" data-name="Layer 1" xmlns="http://www.w3.org/2000/svg" viewBox="0 0 630.56 812.75"><defs><style>.cls-1{fill:#5bd8b4}</style></defs><path class="cls-1" d="M0 6.78L13.94 0H6.3M0 59.65L26.08 9.1 95.32 0h-8.56L23.62 5.83l-.55.3L0 50.83"/><path class="cls-1" d="M0 111.87l49.27-92.55L133.41 0h-8.96L46.56 15.8l-.56.32-46 86.4"/><path class="cls-1" d="M0 161.55L72.47 29.54 169.93 0h-9.34l-91.1 25.78-.56.33L0 151.68"/><path class="cls-1" d="M0 208.84L95.66 39.75 204.97 0h-9.68L92.42 35.76l-.56.34L0 198.49"/><path class="cls-1" d="M0 253.93L118.85 49.96 238.63 0h-9.98L115.34 45.75l-.54.35L0 243.1"/><path class="cls-1" d="M0 296.95L142.05 60.17 271 0h-10.27L138.25 55.74l-.52.35L0 285.68"/><path class="cls-1" d="M0 338.05L165.24 70.38 302.16 0h-10.54L161.16 65.74l-.5.36L0 326.34"/><path class="cls-1" d="M4.7 369.94L188.44 80.58 332.18 0h-10.79L184.05 75.74l-.47.36L0 365.22"/><path class="cls-1" d="M0 412.9l23.99-34.69L211.64 90.78 361.13 0h-11.02L206.94 85.76l-.43.34L18.3 374.38 0 400.85"/><path class="cls-1" d="M0 451.84l43.23-65.29 191.61-285.57L389.07 0h-11.23L229.83 95.78l-.4.33-192.2 286.45L0 438.79"/><path class="cls-1" d="M0 493.5l62.5-98.65 195.55-283.68L416.06 0h-11.43L252.35 106.12 56.24 390.62l-.04.06L0 479.39"/><path class="cls-1" d="M0 538.14l81.77-135 199.48-281.77L442.15 0h-11.62L275.57 115.85l-.3.28L75.24 398.69l-.08.12L0 522.88"/><path class="cls-1" d="M0 586.06l101.05-174.62 203.41-279.88L467.39 0H455.6L298.44 125.9l-.25.24L94.11 406.93 0 569.58"/><path class="cls-1" d="M0 637.59l120.32-217.85 207.35-277.99L491.84 0h-11.97L321.29 135.97l-.19.19-207.86 278.67-.17.23L0 619.79"/><path class="cls-1" d="M0 693.11l139.59-265.07 211.3-276.1L515.53 0h-12.15L344.01 146.18 132.25 422.89l-.23.3L0 673.89"/><path class="cls-1" d="M0 753.06l158.87-316.72 215.24-274.22L538.49 0h-12.3l-159.2 156.12-.07.08-215.66 274.76-.29.36L0 732.29"/><path class="cls-1" d="M2.48 812.75l175.67-368.12 219.17-272.31L560.78 0h-12.47l-158.5 166.24-219.54 272.78-.35.44L0 795.51"/><path class="cls-1" d="M569.79 0L412.72 176.25 189.29 447.07l-.42.51L23.28 812.75h10.99l163.16-359.82L420.5 182.55l.05-.06L582.42 0h-12.63z"/><path class="cls-1" d="M590.65 0L435.62 186.28 207.81 455.72 54.19 812.75h11.28l151.25-351.52 226.94-268.41.12-.15L603.45 0h-12.8z"/><path class="cls-1" d="M610.94 0L458.51 196.3 227.33 463.18l-.58.67-142.23 348.9h11.57l139.92-343.23 230.8-266.44.21-.24L623.89 0h-12.95z"/><path class="cls-1" d="M630.56.15L481.4 206.34 246.35 471.23l-.66.75L114.3 812.75h11.86l129.13-334.93 234.67-264.47.29-.33L630.56 20.75V.15z"/><path class="cls-1" d="M630.56 4.38L504.28 216.37 264.63 480.11 143.54 812.75h12.15l118.89-326.63 238.53-262.5.39-.43L630.56 26.68V4.38z"/><path class="cls-1" d="M630.56 40.33L527.16 226.4 284.41 487.32l-.85.92-111.3 324.51h12.44l109.18-318.33 242.38-260.53.49-.52 93.81-168.82V40.33z"/><path class="cls-1" d="M630.56 80.65l-80.53 155.79-246.58 258.92-.96 1.01-102 316.38h12.73l99.96-310.03L559.4 244.16l.6-.62 70.56-136.5V80.65z"/><path class="cls-1" d="M630.56 126.17l-57.66 120.3L322.49 503.4l-1.07 1.09-93.19 308.26h13.02l91.22-301.74 250.07-256.57.71-.73 47.31-98.7v-28.84z"/><path class="cls-1" d="M630.56 177.92l-34.8 78.59-254.24 254.93-1.17 1.18-84.84 300.13h13.31l82.96-293.43 253.9-254.6.84-.84 24.04-54.3v-31.66z"/><path class="cls-1" d="M630.56 237.24l-11.94 29.31-259.35 254.2-76.94 292h13.62l75.13-285.13L628.81 275l.97-.96.78-1.9v-34.9z"/><path class="cls-1" d="M630.56 287.05L379.61 527.52l-1.42 1.36-69.47 283.87h13.92l67.75-276.83 240.17-230.15v-18.72z"/><path class="cls-1" d="M630.56 318.26L397.11 537l-62.42 275.75h14.22l60.79-268.53 220.86-206.95v-19.01z"/><path class="cls-1" d="M630.56 348.54L417.71 543.58l-1.69 1.55-55.77 267.62h14.52l54.24-260.23 201.55-184.69v-19.29z"/><path class="cls-1" d="M630.56 377.91l-193.79 173.7-1.83 1.64-49.53 259.5h14.83l48.09-251.93 182.23-163.34v-19.57z"/><path class="cls-1" d="M630.56 406.43L453.85 561.38l-43.66 251.37h15.15l42.31-243.62 162.91-142.86v-19.84z"/><path class="cls-1" d="M630.56 434.11L474.89 567.67l-2.14 1.83-38.15 243.25h15.46l36.91-235.32 143.59-123.19v-20.13z"/><path class="cls-1" d="M630.56 461.01L493.95 575.7l-2.3 1.92-33 235.13h15.78l31.86-227.01 124.27-104.33v-20.4z"/><path class="cls-1" d="M630.56 487.15l-117.54 96.57-2.46 2.03-28.2 227h16.1l27.16-218.71 104.94-86.22v-20.67z"/><path class="cls-1" d="M630.56 512.56l-101.11 81.31-23.72 218.88h16.42l22.8-210.4 85.61-68.84v-20.95z"/><path class="cls-1" d="M630.56 537.26l-82.21 64.73-19.59 210.76h16.75l18.78-202.09 66.27-52.17v-21.23z"/><path class="cls-1" d="M630.56 561.3l-60.32 46.49-3 2.31-15.75 202.65h17.08l15.06-193.78 46.93-36.17v-21.5z"/><path class="cls-1" d="M630.56 584.69l-44.44 33.53-12.22 194.53h17.42l11.65-185.47 27.59-20.82v-21.77z"/><path class="cls-1" d="M630.56 607.45l-25.55 18.88-8.99 186.42h17.75l8.54-177.16 8.25-6.09v-22.05z"/><path class="cls-1" d="M630.56 812.75V629.62l-6.67 4.83-6.05 178.3h12.72z"/></svg>