<svg id="Layer_1" data-name="Layer 1" xmlns="http://www.w3.org/2000/svg" viewBox="0 0 160.27 400"><defs><style>.cls-1{fill:#212121;}</style></defs><title>single-no</title><path class="cls-1" d="M143.73,233.14l-21-16.66V176a6.27,6.27,0,0,0-6.27-6.27H98L98,126l35.18-13A18.23,18.23,0,0,0,144,89.56l-3-8.22a18.22,18.22,0,0,0-23.41-10.78L111.05,73a39,39,0,0,0-25.46,36.71c0,.32-.08,5.75-.08,5.75l-.06,54.28H78.9L78.83,55l36.68-13.61c11.56-4.29,15.15-15.07,13.57-23.85A20.77,20.77,0,0,0,108.53,0c-.59,0-1.19,0-1.79.07A45.69,45.69,0,0,0,94.28,2.81,43.64,43.64,0,0,0,70.8,22.88a36.85,36.85,0,0,0-4.51,16.56c0,.09.08,130.25.08,130.25H59.69l-.06-67.79s-.1-7.46-.24-8A39,39,0,0,0,56,81.16,38.73,38.73,0,0,0,34.07,60.91l-6.49-2.39a18,18,0,0,0-6.31-1.14A18.32,18.32,0,0,0,4.16,69.3l-3,8.22a18.26,18.26,0,0,0,10.79,23.42l35.18,13,.06,55.76H29.39A6.27,6.27,0,0,0,23.12,176v43.19H21.75a6.27,6.27,0,0,0-6.27,6.27V337.25a6.27,6.27,0,0,0,6.27,6.27h1.37v15A41.54,41.54,0,0,0,64.61,400H116.5a6.27,6.27,0,0,0,6.27-6.27v-28a43.83,43.83,0,0,0,37.5-43.31v-55A43.53,43.53,0,0,0,143.73,233.14ZM115.4,84.71l6.49-2.39a5.58,5.58,0,0,1,2-.36,5.71,5.71,0,0,1,5.34,3.73l3,8.21a5.7,5.7,0,0,1-3.37,7.32L98.3,112.5A26.47,26.47,0,0,1,115.4,84.71ZM81.84,28.81a31.22,31.22,0,0,1,16.8-14.25,33.22,33.22,0,0,1,9-2l.84,0c5.1,0,7.59,3.7,8.21,7.17a8.46,8.46,0,0,1-5.59,9.88l-32.28,12A24,24,0,0,1,81.84,28.81Zm-35,71.66L16.26,89.18a5.7,5.7,0,0,1-3.37-7.32l3-8.21a5.73,5.73,0,0,1,5.35-3.73,5.58,5.58,0,0,1,2,.36l6.49,2.39a26.45,26.45,0,0,1,17.1,27.8Zm63.4,81.76v9.1H35.66v-9.1ZM28,331V231.69H56.34v83.19A16.12,16.12,0,0,1,40.24,331Zm36.59,56.48a29,29,0,0,1-28.95-28.95v-15h4.58a28.68,28.68,0,0,0,28.64-28.64V225.42a6.27,6.27,0,0,0-6.27-6.27H35.66V203.87h74.57V387.46Zm58.16-155,8.64,6.87V349.81a31,31,0,0,1-8.64,3.17V232.49Zm25,89.89A31,31,0,0,1,144,337.26V252.49a31.18,31.18,0,0,1,3.78,14.91Z"/></svg>