<svg id="Layer_1" data-name="Layer 1" xmlns="http://www.w3.org/2000/svg" viewBox="0 0 450 249.58"><defs><style>.cls-1{fill:#212121;}</style></defs><title>team-no</title><g id="TEAM"><path class="cls-1" d="M89.68,145.47,76.6,135.07V109.79a3.91,3.91,0,0,0-3.91-3.91H61.14l0-27.28,22-8.11a11.37,11.37,0,0,0,6.73-14.61L88,50.76a11.43,11.43,0,0,0-10.67-7.44,11.58,11.58,0,0,0-4,.7l-4,1.5a24.35,24.35,0,0,0-15.88,22.9c0,.2-.06,3.59-.06,3.59l0,33.87H49.23l0-71.59L72.07,25.8a13,13,0,0,0,8.47-14.88A13,13,0,0,0,67.72,0C67.35,0,67,0,66.6,0a28.85,28.85,0,0,0-7.78,1.71A27.31,27.31,0,0,0,44.17,14.27a23,23,0,0,0-2.8,10.34c0,.05,0,81.27,0,81.27H37.25l0-42.3s-.05-4.65-.14-5a24.72,24.72,0,0,0-2.14-8A24.16,24.16,0,0,0,21.26,38l-4.05-1.5a11.3,11.3,0,0,0-3.94-.71A11.42,11.42,0,0,0,2.6,43.24L.7,48.37A11.39,11.39,0,0,0,7.44,63l22,8.11,0,34.79H18.34a3.91,3.91,0,0,0-3.91,3.91v27h-.86a3.91,3.91,0,0,0-3.91,3.91v69.78a3.91,3.91,0,0,0,3.91,3.91h.86v9.36a25.91,25.91,0,0,0,25.89,25.88H72.69a3.91,3.91,0,0,0,3.91-3.91V228.18a27.36,27.36,0,0,0,23.4-27v-34.3A27.15,27.15,0,0,0,89.68,145.47ZM72,52.86l4-1.5a3.77,3.77,0,0,1,1.24-.22,3.55,3.55,0,0,1,3.33,2.33l1.89,5.12a3.55,3.55,0,0,1-2.1,4.57l-19.07,7A16.5,16.5,0,0,1,72,52.86ZM51.07,18A19.41,19.41,0,0,1,61.55,9.09a20.9,20.9,0,0,1,5.64-1.25l.53,0a5.09,5.09,0,0,1,5.12,4.48,5.26,5.26,0,0,1-3.49,6.16L49.21,25.94A15,15,0,0,1,51.07,18ZM29.22,62.69l-19.07-7A3.55,3.55,0,0,1,8,51.08L9.94,46a3.56,3.56,0,0,1,3.33-2.32,3.47,3.47,0,0,1,1.23.22l4.05,1.5A16.49,16.49,0,0,1,29.22,62.69Zm39.56,51v5.68H22.25V113.7Zm-51.3,92.82v-62H35.16v51.9a10.06,10.06,0,0,1-10,10.05Zm22.84,35.24A18.08,18.08,0,0,1,22.25,223.7v-9.36h2.86A17.89,17.89,0,0,0,43,196.47V140.65a3.91,3.91,0,0,0-3.91-3.91H22.25V127.2H68.78V241.76ZM76.6,145.07l5.4,4.28v68.92a19.29,19.29,0,0,1-5.4,2V145.07Zm15.58,56.08a19.42,19.42,0,0,1-2.36,9.29v-52.9a19.45,19.45,0,0,1,2.36,9.31Z"/><path class="cls-1" d="M206.35,145.47l-13.08-10.4V109.79a3.91,3.91,0,0,0-3.91-3.91H177.81l0-27.28,21.95-8.11a11.37,11.37,0,0,0,6.73-14.61l-1.9-5.12A11.42,11.42,0,0,0,194,43.32,11.56,11.56,0,0,0,190,44l-4,1.5a24.36,24.36,0,0,0-15.89,22.9c0,.2,0,3.59,0,3.59l0,33.87H165.9l-.05-71.59,22.89-8.49a13,13,0,0,0,8.47-14.88A13,13,0,0,0,184.38,0c-.36,0-.74,0-1.11,0a28.85,28.85,0,0,0-7.78,1.71,27.28,27.28,0,0,0-14.65,12.52A23.11,23.11,0,0,0,158,24.61c0,.05.05,81.27.05,81.27h-4.17l0-42.3s-.06-4.65-.15-5A24.37,24.37,0,0,0,137.93,38l-4.05-1.5a11.37,11.37,0,0,0-14.62,6.73l-1.89,5.13A11.39,11.39,0,0,0,124.1,63l22,8.11,0,34.79H135a3.91,3.91,0,0,0-3.91,3.91v27h-.86a3.91,3.91,0,0,0-3.91,3.91v69.78a3.91,3.91,0,0,0,3.91,3.91h.86v9.36A25.91,25.91,0,0,0,157,249.58h32.38a3.91,3.91,0,0,0,3.91-3.91V228.18a27.36,27.36,0,0,0,23.4-27v-34.3A27.15,27.15,0,0,0,206.35,145.47ZM188.67,52.86l4.05-1.5a3.71,3.71,0,0,1,1.23-.22,3.57,3.57,0,0,1,3.34,2.33l1.89,5.12a3.57,3.57,0,0,1-2.1,4.57L178,70.2A16.52,16.52,0,0,1,188.67,52.86ZM167.73,18a19.45,19.45,0,0,1,10.48-8.88,21.06,21.06,0,0,1,5.65-1.25l.52,0a5.09,5.09,0,0,1,5.13,4.48A5.27,5.27,0,0,1,186,18.46l-20.14,7.48A15,15,0,0,1,167.73,18ZM145.89,62.69l-19.08-7a3.55,3.55,0,0,1-2.1-4.56L126.6,46a3.58,3.58,0,0,1,3.34-2.32,3.51,3.51,0,0,1,1.23.22l4.05,1.5a16.49,16.49,0,0,1,10.67,17.34Zm39.56,51v5.68H138.92V113.7Zm-51.3,92.82v-62h17.67v51.9a10.06,10.06,0,0,1-10,10.05ZM157,241.76a18.08,18.08,0,0,1-18.06-18.06v-9.36h2.85a17.89,17.89,0,0,0,17.88-17.87V140.65a3.92,3.92,0,0,0-3.92-3.91H138.92V127.2h46.53V241.76Zm36.29-96.69,5.39,4.28v68.92a19.22,19.22,0,0,1-5.39,2V145.07Zm15.57,56.08a19.41,19.41,0,0,1-2.35,9.29v-52.9a19.44,19.44,0,0,1,2.35,9.31Z"/><path class="cls-1" d="M323,145.47l-13.09-10.4V109.79a3.91,3.91,0,0,0-3.91-3.91H294.47l0-27.28,21.95-8.11a11.37,11.37,0,0,0,6.73-14.61l-1.89-5.12A11.38,11.38,0,0,0,306.68,44l-4.05,1.5a24.36,24.36,0,0,0-15.89,22.9c0,.2-.05,3.59-.05,3.59l0,33.87h-4.08l-.05-71.59,22.89-8.49a13,13,0,0,0,8.46-14.88A13,13,0,0,0,301.05,0c-.37,0-.74,0-1.11,0a28.77,28.77,0,0,0-7.78,1.71,27.24,27.24,0,0,0-14.65,12.52,23,23,0,0,0-2.81,10.34c0,.05,0,81.27,0,81.27h-4.16l0-42.3s-.06-4.65-.15-5A24.36,24.36,0,0,0,254.59,38l-4.05-1.5a11.3,11.3,0,0,0-3.94-.71,11.42,11.42,0,0,0-10.67,7.44L234,48.37A11.38,11.38,0,0,0,240.77,63l22,8.11,0,34.79H251.67a3.91,3.91,0,0,0-3.91,3.91v27h-.85a3.92,3.92,0,0,0-3.92,3.91v69.78a3.92,3.92,0,0,0,3.92,3.91h.85v9.36a25.92,25.92,0,0,0,25.89,25.88H306a3.92,3.92,0,0,0,3.92-3.91V228.18a27.35,27.35,0,0,0,23.39-27v-34.3A27.17,27.17,0,0,0,323,145.47ZM305.34,52.86l4.05-1.5a3.71,3.71,0,0,1,1.23-.22A3.55,3.55,0,0,1,314,53.47l1.89,5.12a3.52,3.52,0,0,1-.1,2.72,3.56,3.56,0,0,1-2,1.85l-19.07,7A16.51,16.51,0,0,1,305.34,52.86ZM284.4,18a19.41,19.41,0,0,1,10.48-8.88,21.06,21.06,0,0,1,5.65-1.25l.52,0a5.07,5.07,0,0,1,5.12,4.48,5.26,5.26,0,0,1-3.48,6.16l-20.14,7.48A14.9,14.9,0,0,1,284.4,18ZM262.56,62.69l-19.08-7a3.55,3.55,0,0,1-2.1-4.56L243.27,46a3.56,3.56,0,0,1,3.33-2.32,3.43,3.43,0,0,1,1.23.22l4,1.5a16.52,16.52,0,0,1,10.68,17.34Zm39.55,51v5.68H255.58V113.7Zm-51.29,92.82v-62h17.67v51.9a10.06,10.06,0,0,1-10.05,10.05Zm22.83,35.24a18.09,18.09,0,0,1-18.07-18.06v-9.36h2.86a17.89,17.89,0,0,0,17.87-17.87V140.65a3.91,3.91,0,0,0-3.91-3.91H255.58V127.2h46.53V241.76Zm36.28-96.69,5.4,4.28v68.92a19.29,19.29,0,0,1-5.4,2V145.07Zm15.58,56.08a19.3,19.3,0,0,1-2.36,9.29v-52.9a19.45,19.45,0,0,1,2.36,9.31Z"/><path class="cls-1" d="M439.68,145.47l-13.08-10.4V109.79a3.91,3.91,0,0,0-3.91-3.91H411.14l0-27.28,21.95-8.11a11.37,11.37,0,0,0,6.73-14.61L438,50.76a11.43,11.43,0,0,0-10.67-7.44,11.58,11.58,0,0,0-4,.7l-4,1.5a24.35,24.35,0,0,0-15.88,22.9c0,.2-.06,3.59-.06,3.59l0,33.87h-4.09l0-71.59,22.88-8.49a13,13,0,0,0,8.47-14.88A13,13,0,0,0,417.72,0c-.37,0-.74,0-1.12,0a28.85,28.85,0,0,0-7.78,1.71,27.31,27.31,0,0,0-14.65,12.52,23,23,0,0,0-2.8,10.34c0,.05,0,81.27,0,81.27h-4.16l-.05-42.3s-.05-4.65-.14-5a24.72,24.72,0,0,0-2.14-8A24.16,24.16,0,0,0,371.26,38l-4.05-1.5a11.3,11.3,0,0,0-3.94-.71,11.42,11.42,0,0,0-10.67,7.44l-1.9,5.13A11.39,11.39,0,0,0,357.44,63l21.95,8.11,0,34.79H368.34a3.91,3.91,0,0,0-3.91,3.91v27h-.86a3.91,3.91,0,0,0-3.91,3.91v69.78a3.91,3.91,0,0,0,3.91,3.91h.86v9.36a25.91,25.91,0,0,0,25.89,25.88h32.37a3.91,3.91,0,0,0,3.91-3.91V228.18a27.36,27.36,0,0,0,23.4-27v-34.3A27.15,27.15,0,0,0,439.68,145.47ZM422,52.86l4.05-1.5a3.77,3.77,0,0,1,1.24-.22,3.55,3.55,0,0,1,3.33,2.33l1.89,5.12a3.55,3.55,0,0,1-2.1,4.57l-19.07,7A16.5,16.5,0,0,1,422,52.86ZM401.07,18a19.41,19.41,0,0,1,10.48-8.88,20.9,20.9,0,0,1,5.64-1.25l.53,0a5.09,5.09,0,0,1,5.12,4.48,5.26,5.26,0,0,1-3.49,6.16l-20.14,7.48A15,15,0,0,1,401.07,18ZM379.22,62.69l-19.07-7A3.55,3.55,0,0,1,358,51.08l1.9-5.13a3.56,3.56,0,0,1,3.33-2.32,3.47,3.47,0,0,1,1.23.22l4.05,1.5a16.49,16.49,0,0,1,10.67,17.34Zm39.56,51v5.68H372.25V113.7Zm-51.3,92.82v-62h17.68v51.9a10.06,10.06,0,0,1-10.05,10.05Zm22.84,35.24a18.08,18.08,0,0,1-18.07-18.06v-9.36h2.86A17.89,17.89,0,0,0,393,196.47V140.65a3.91,3.91,0,0,0-3.91-3.91H372.25V127.2h46.53V241.76Zm36.28-96.69,5.4,4.28v68.92a19.29,19.29,0,0,1-5.4,2V145.07Zm15.58,56.08a19.42,19.42,0,0,1-2.36,9.29v-52.9a19.45,19.45,0,0,1,2.36,9.31Z"/></g></svg>