<svg id="Layer_1" data-name="Layer 1" xmlns="http://www.w3.org/2000/svg" viewBox="0 0 450 450"><defs><style>.cls-1{fill:#212121;}</style></defs><title>team</title><path class="cls-1" d="M89.68,245.68,76.6,235.28V210a3.91,3.91,0,0,0-3.91-3.91H61.14l0-27.28,22-8.11a11.37,11.37,0,0,0,6.73-14.61L88,151a11.4,11.4,0,0,0-14.62-6.73l-4,1.5a24.34,24.34,0,0,0-15.88,22.9c0,.2-.06,3.59-.06,3.59l0,33.87H49.23l0-71.59L72.07,126a13.32,13.32,0,0,0-4.35-25.8c-.37,0-.74,0-1.12,0A28.85,28.85,0,0,0,58.82,102a27.31,27.31,0,0,0-14.65,12.52,23,23,0,0,0-2.8,10.34c0,.05,0,81.27,0,81.27H37.25l0-42.3s-.05-4.66-.14-5a24.65,24.65,0,0,0-2.14-8,24.12,24.12,0,0,0-13.66-12.63l-4.05-1.5a11.3,11.3,0,0,0-3.94-.71A11.42,11.42,0,0,0,2.6,143.45L.7,148.58a11.39,11.39,0,0,0,6.74,14.61l22,8.11,0,34.79H18.34A3.91,3.91,0,0,0,14.43,210V237h-.86a3.91,3.91,0,0,0-3.91,3.91v69.78a3.91,3.91,0,0,0,3.91,3.91h.86v9.35a25.91,25.91,0,0,0,25.89,25.89H72.69a3.91,3.91,0,0,0,3.91-3.91v-17.5a27.34,27.34,0,0,0,23.4-27v-34.3A27.15,27.15,0,0,0,89.68,245.68ZM72,153.07l4-1.5a3.56,3.56,0,0,1,4.57,2.1l1.89,5.13a3.53,3.53,0,0,1-2.1,4.56l-19.07,7A16.5,16.5,0,0,1,72,153.07ZM51.07,118.18a19.41,19.41,0,0,1,10.48-8.88,20.17,20.17,0,0,1,5.64-1.25l.53,0a5.08,5.08,0,0,1,5.12,4.48,5.27,5.27,0,0,1-3.49,6.16l-20.14,7.48A15,15,0,0,1,51.07,118.18ZM29.22,162.9l-19.07-7.05A3.56,3.56,0,0,1,8,151.29l1.9-5.13a3.56,3.56,0,0,1,3.33-2.32,3.47,3.47,0,0,1,1.23.22l4.05,1.49a16.39,16.39,0,0,1,9.26,8.57A16.29,16.29,0,0,1,29.22,162.9Zm39.56,51v5.68H22.25v-5.68Zm-51.3,92.82v-62H35.16v51.91a10.06,10.06,0,0,1-10,10.05ZM40.32,342A18.08,18.08,0,0,1,22.25,323.9v-9.35h2.86A17.89,17.89,0,0,0,43,296.68V240.86A3.91,3.91,0,0,0,39.07,237H22.25v-9.54H68.78V342Zm36.28-96.7,5.4,4.29v68.92a19.29,19.29,0,0,1-5.4,2V245.27Zm15.58,56.09a19.45,19.45,0,0,1-2.36,9.29v-52.9a19.45,19.45,0,0,1,2.36,9.31Z"/><path class="cls-1" d="M206.35,245.68l-13.08-10.4V210a3.91,3.91,0,0,0-3.91-3.91H177.81l0-27.28,21.95-8.11a11.37,11.37,0,0,0,6.73-14.61l-1.9-5.13A11.39,11.39,0,0,0,190,144.23l-4,1.5a24.35,24.35,0,0,0-15.89,22.9c0,.2,0,3.59,0,3.59l0,33.87H165.9l-.05-71.59L188.74,126a13.32,13.32,0,0,0-4.36-25.8c-.36,0-.74,0-1.11,0a28.85,28.85,0,0,0-7.78,1.71,27.28,27.28,0,0,0-14.65,12.52A23.11,23.11,0,0,0,158,124.82c0,.05.05,81.27.05,81.27h-4.17l0-42.3s-.06-4.66-.15-5a24.37,24.37,0,0,0-15.79-20.58l-4.05-1.5a11.37,11.37,0,0,0-14.62,6.73l-1.89,5.13a11.39,11.39,0,0,0,6.73,14.61l22,8.11,0,34.79H135A3.91,3.91,0,0,0,131.1,210V237h-.86a3.91,3.91,0,0,0-3.91,3.91v69.78a3.91,3.91,0,0,0,3.91,3.91h.86v9.35A25.91,25.91,0,0,0,157,349.79h32.38a3.91,3.91,0,0,0,3.91-3.91v-17.5a27.34,27.34,0,0,0,23.4-27v-34.3A27.15,27.15,0,0,0,206.35,245.68Zm-17.68-92.61,4.05-1.5a3.47,3.47,0,0,1,1.23-.22,3.58,3.58,0,0,1,3.34,2.32l1.89,5.13a3.55,3.55,0,0,1-2.1,4.56l-19.08,7A16.52,16.52,0,0,1,188.67,153.07Zm-20.94-34.89a19.45,19.45,0,0,1,10.48-8.88,20.32,20.32,0,0,1,5.65-1.25l.52,0a5.08,5.08,0,0,1,5.13,4.48,5.28,5.28,0,0,1-3.49,6.16l-20.14,7.48A15,15,0,0,1,167.73,118.18ZM145.89,162.9l-19.08-7.05a3.55,3.55,0,0,1-2.1-4.56l1.89-5.13a3.58,3.58,0,0,1,3.34-2.32,3.51,3.51,0,0,1,1.23.22l4.05,1.49a16.51,16.51,0,0,1,10.67,17.35Zm39.56,51v5.68H138.92v-5.68Zm-51.3,92.82v-62h17.67v51.91a10.06,10.06,0,0,1-10,10.05ZM157,342a18.08,18.08,0,0,1-18.06-18.07v-9.35h2.85a17.9,17.9,0,0,0,17.88-17.87V240.86a3.92,3.92,0,0,0-3.92-3.91H138.92v-9.54h46.53V342Zm36.29-96.7,5.39,4.29v68.92a19.22,19.22,0,0,1-5.39,2V245.27Zm15.57,56.09a19.44,19.44,0,0,1-2.35,9.29v-52.9a19.44,19.44,0,0,1,2.35,9.31Z"/><path class="cls-1" d="M323,245.68l-13.09-10.4V210a3.91,3.91,0,0,0-3.91-3.91H294.47l0-27.28,21.95-8.11a11.37,11.37,0,0,0,6.73-14.61L321.29,151a11.41,11.41,0,0,0-10.67-7.43,11.29,11.29,0,0,0-3.94.7l-4.05,1.5a24.35,24.35,0,0,0-15.89,22.9c0,.2-.05,3.59-.05,3.59l0,33.87h-4.08l-.05-71.59L305.41,126a13.32,13.32,0,0,0-4.36-25.8c-.37,0-.74,0-1.11,0a28.77,28.77,0,0,0-7.78,1.71,27.24,27.24,0,0,0-14.65,12.52,23,23,0,0,0-2.81,10.34c0,.05,0,81.27,0,81.27h-4.16l0-42.3s-.06-4.66-.15-5a24.36,24.36,0,0,0-15.8-20.58l-4.05-1.5a11.3,11.3,0,0,0-3.94-.71,11.42,11.42,0,0,0-10.67,7.44L234,148.58a11.38,11.38,0,0,0,6.73,14.61l22,8.11,0,34.79H251.67a3.91,3.91,0,0,0-3.91,3.91V237h-.85a3.92,3.92,0,0,0-3.92,3.91v69.78a3.92,3.92,0,0,0,3.92,3.91h.85v9.35a25.92,25.92,0,0,0,25.89,25.89H306a3.92,3.92,0,0,0,3.92-3.91v-17.5a27.33,27.33,0,0,0,23.39-27v-34.3A27.17,27.17,0,0,0,323,245.68Zm-17.68-92.61,4.05-1.5a3.47,3.47,0,0,1,1.23-.22,3.56,3.56,0,0,1,3.33,2.32l1.89,5.13a3.53,3.53,0,0,1-2.1,4.56l-19.07,7A16.51,16.51,0,0,1,305.34,153.07ZM284.4,118.18a19.41,19.41,0,0,1,10.48-8.88,20.32,20.32,0,0,1,5.65-1.25l.52,0a5.06,5.06,0,0,1,5.12,4.48,5.27,5.27,0,0,1-3.48,6.16l-20.14,7.48A14.88,14.88,0,0,1,284.4,118.18ZM262.56,162.9l-19.08-7.05a3.55,3.55,0,0,1-2.1-4.56l1.89-5.13a3.56,3.56,0,0,1,3.33-2.32,3.43,3.43,0,0,1,1.23.22l4,1.49a16.54,16.54,0,0,1,10.68,17.35Zm39.55,51v5.68H255.58v-5.68Zm-51.29,92.82v-62h17.67v51.91a10.06,10.06,0,0,1-10.05,10.05ZM273.65,342a18.09,18.09,0,0,1-18.07-18.07v-9.35h2.86a17.89,17.89,0,0,0,17.87-17.87V240.86A3.91,3.91,0,0,0,272.4,237H255.58v-9.54h46.53V342Zm36.28-96.7,5.4,4.29v68.92a19.29,19.29,0,0,1-5.4,2V245.27Zm15.58,56.09a19.33,19.33,0,0,1-2.36,9.29v-52.9a19.45,19.45,0,0,1,2.36,9.31Z"/><path class="cls-1" d="M439.68,245.68l-13.08-10.4V210a3.91,3.91,0,0,0-3.91-3.91H411.14l0-27.28,21.95-8.11a11.37,11.37,0,0,0,6.73-14.61L438,151a11.4,11.4,0,0,0-14.62-6.73l-4,1.5a24.34,24.34,0,0,0-15.88,22.9c0,.2-.06,3.59-.06,3.59l0,33.87h-4.09l0-71.59L422.07,126a13.32,13.32,0,0,0-4.35-25.8c-.37,0-.74,0-1.12,0a28.85,28.85,0,0,0-7.78,1.71,27.31,27.31,0,0,0-14.65,12.52,23,23,0,0,0-2.8,10.34c0,.05,0,81.27,0,81.27h-4.16l-.05-42.3s-.05-4.66-.14-5a24.65,24.65,0,0,0-2.14-8,24.12,24.12,0,0,0-13.66-12.63l-4.05-1.5a11.3,11.3,0,0,0-3.94-.71,11.42,11.42,0,0,0-10.67,7.44l-1.9,5.13a11.39,11.39,0,0,0,6.74,14.61l21.95,8.11,0,34.79H368.34a3.91,3.91,0,0,0-3.91,3.91V237h-.86a3.91,3.91,0,0,0-3.91,3.91v69.78a3.91,3.91,0,0,0,3.91,3.91h.86v9.35a25.91,25.91,0,0,0,25.89,25.89h32.37a3.91,3.91,0,0,0,3.91-3.91v-17.5a27.34,27.34,0,0,0,23.4-27v-34.3A27.15,27.15,0,0,0,439.68,245.68ZM422,153.07l4.05-1.5a3.56,3.56,0,0,1,4.57,2.1l1.89,5.13a3.53,3.53,0,0,1-2.1,4.56l-19.07,7A16.5,16.5,0,0,1,422,153.07Zm-20.93-34.89a19.41,19.41,0,0,1,10.48-8.88,20.17,20.17,0,0,1,5.64-1.25l.53,0a5.08,5.08,0,0,1,5.12,4.48,5.27,5.27,0,0,1-3.49,6.16l-20.14,7.48A15,15,0,0,1,401.07,118.18ZM379.22,162.9l-19.07-7.05a3.56,3.56,0,0,1-2.11-4.56l1.9-5.13a3.56,3.56,0,0,1,3.33-2.32,3.47,3.47,0,0,1,1.23.22l4.05,1.49a16.51,16.51,0,0,1,10.67,17.35Zm39.56,51v5.68H372.25v-5.68Zm-51.3,92.82v-62h17.68v51.91a10.06,10.06,0,0,1-10.05,10.05ZM390.32,342a18.08,18.08,0,0,1-18.07-18.07v-9.35h2.86A17.89,17.89,0,0,0,393,296.68V240.86a3.91,3.91,0,0,0-3.91-3.91H372.25v-9.54h46.53V342Zm36.28-96.7,5.4,4.29v68.92a19.29,19.29,0,0,1-5.4,2V245.27Zm15.58,56.09a19.45,19.45,0,0,1-2.36,9.29v-52.9a19.45,19.45,0,0,1,2.36,9.31Z"/></svg>