<?xml version="1.0" standalone="no"?>
<!DOCTYPE svg PUBLIC "-//W3C//DTD SVG 20010904//EN"
 "http://www.w3.org/TR/2001/REC-SVG-20010904/DTD/svg10.dtd">
<svg version="1.0" xmlns="http://www.w3.org/2000/svg"
 width="260.000000pt" height="260.000000pt" viewBox="0 0 260.000000 260.000000"
 preserveAspectRatio="xMidYMid meet">
<metadata>
Created by potrace 1.11, written by Peter Selinger 2001-2013
</metadata>
<g transform="translate(0.000000,260.000000) scale(0.100000,-0.100000)"
fill="#000000" stroke="none">
<path d="M1270 2483 c-12 -27 -40 -86 -63 -133 -34 -70 -47 -86 -67 -88 -191
-21 -420 -135 -563 -279 -112 -113 -189 -239 -235 -383 -20 -63 -25 -85 -37
-159 -3 -19 -8 -37 -10 -41 -2 -4 -56 -31 -120 -60 -63 -30 -115 -56 -115 -59
0 -3 54 -32 120 -63 66 -32 122 -63 124 -70 1 -7 13 -53 24 -102 67 -277 281
-524 549 -636 65 -27 177 -59 269 -76 15 -2 31 -27 59 -86 75 -164 87 -188 94
-184 3 2 33 63 66 135 44 96 65 132 80 135 188 38 303 81 416 155 221 146 370
369 424 636 5 28 17 36 122 85 64 30 122 56 130 58 27 7 11 18 -88 62 -156 69
-155 68 -163 135 -10 87 -62 234 -116 326 l-48 82 -45 -59 c-25 -32 -90 -117
-145 -188 l-99 -128 14 -51 c26 -101 18 -278 -16 -362 -58 -142 -160 -260
-271 -313 -346 -167 -732 20 -816 395 -32 144 -6 321 66 448 61 107 176 203
295 246 88 32 284 33 369 2 l59 -21 161 130 c89 72 162 134 164 138 4 10 -68
50 -159 87 -70 29 -157 53 -242 68 -26 4 -41 13 -46 28 -18 46 -111 237 -116
237 -2 0 -14 -21 -25 -47z"/>
<path d="M2245 2251 c-52 -41 -346 -273 -444 -349 -101 -79 -438 -344 -451
-355 -8 -7 -50 -39 -92 -71 l-77 -59 -41 -151 c-23 -83 -44 -159 -47 -169 -4
-15 -1 -18 14 -14 10 3 86 24 168 47 l151 42 184 235 c102 129 192 243 200
253 8 9 26 32 40 50 29 39 328 417 374 474 41 52 89 116 84 116 -1 -1 -30 -22
-63 -49z"/>
</g>
</svg>
