<svg xmlns="http://www.w3.org/2000/svg" viewBox="0 0 893.39 219.59"><defs><style>.cls-1{fill:#fff}.cls-2{fill:#ec1c24}</style></defs><g id="Layer_2" data-name="Layer 2"><g id="Layer_1-2" data-name="Layer 1"><path d="M0 0h893.39v179.84H0z"/><path class="cls-1" d="M137.62 64.23a43.15 43.15 0 0 1 8 25.26v.24c0 24-18.89 43.57-44.89 43.57S56.05 113.92 56.05 90v-.24c0-24 18.9-43.57 44.9-43.57a46.13 46.13 0 0 1 25.28 7.21l-14.88 12.11a25.53 25.53 0 0 0-10.64-2.26c-14.93 0-25.28 11.75-25.28 26.24v.24c0 14.44 10.59 26.48 25.52 26.48s25.28-11.8 25.28-26.24v-.24a28.65 28.65 0 0 0-1.39-8.84z"/><path class="cls-1" d="M107.2 48.07l-6.42-13.67-6.41 13.67h12.83zm-12.83 83.79l6.41 13.66 6.42-13.66H94.37zm-35.6-47.63L45.1 90.64l13.67 6.42V84.23zm84.58 12.83l13.67-6.42-13.67-6.41v12.83z"/><path class="cls-2" d="M91.5 99.66l4.13-15 51-40.14-40.14 51-14.99 4.14z"/><circle cx="101.06" cy="89.96" r="3.3"/><path d="M49.19 201.45h13.42v3.49h-9.55v3.62h8.4v3.49h-8.4v3.74h9.67v3.49H49.19zm34.94 0h3.61l8.36 11v-11h3.9v17.83h-3.37L88 208v11.33h-3.87zm42.14 3.62h-5.42v-3.62h14.77v3.62h-5.43v14.21h-3.92zm30.23-3.62h13.42v3.49h-9.55v3.62h8.4v3.49h-8.4v3.74h9.68v3.49H156.5zm34.94 0h8.15a7 7 0 0 1 5.19 1.81 5.51 5.51 0 0 1 1.53 4.08 5.58 5.58 0 0 1-1.05 3.52 6.12 6.12 0 0 1-2.77 2l4.36 6.37h-4.59l-3.82-5.7h-3.08v5.7h-3.92zm7.89 8.66a3.25 3.25 0 0 0 2.23-.69 2.3 2.3 0 0 0 .78-1.83v-.05a2.25 2.25 0 0 0-.82-1.91 3.6 3.6 0 0 0-2.26-.64h-3.9v5.12zm32.55-5.04h-5.42v-3.62h14.77v3.62h-5.43v14.21h-3.92zm36.34-3.74h3.62l7.63 17.95h-4.1l-1.63-4h-7.53l-1.63 4h-4zm4.12 10.49L270 206l-2.37 5.78zm27.94-10.37h3.92v17.83h-3.92zm26.26 0h3.61l8.36 11v-11h3.87v17.83H339L330.41 208v11.33h-3.87zm37.99 0h4.23l4.68 7.54 4.69-7.54h4.23v17.83h-3.87v-11.64l-5 7.62h-.1l-5-7.54v11.56h-3.87zm39.98 0h13.42v3.49h-9.55v3.62h8.41v3.49h-8.41v3.74h9.68v3.49h-13.55zm34.94 0h3.62l8.35 11v-11h3.87v17.83H452L443.32 208v11.33h-3.87zm42.15 3.62h-5.43v-3.62h14.77v3.62h-5.42v14.21h-3.92zm55.74-3.62h4.23l4.69 7.54 4.68-7.54h4.23v17.83h-3.87v-11.64l-5 7.62h-.1l-5-7.54v11.56h-3.87zm46.1-.12h3.61l7.64 17.95h-4.1l-1.63-4h-7.54l-1.63 4h-4zm4.12 10.49l-2.37-5.82-2.37 5.78zm27.76-10.37h8.15a7 7 0 0 1 5.19 1.81 5.51 5.51 0 0 1 1.53 4.08 5.58 5.58 0 0 1-1.05 3.52 6.12 6.12 0 0 1-2.77 2l4.36 6.37h-4.59l-3.82-5.7h-3.08v5.7h-3.92zm7.89 8.66a3.25 3.25 0 0 0 2.23-.69 2.3 2.3 0 0 0 .78-1.83v-.05a2.25 2.25 0 0 0-.82-1.91 3.6 3.6 0 0 0-2.26-.64h-3.9v5.12zm28.4-8.66h3.92v7.8l7.23-7.8h4.74l-7.26 7.55 7.59 10.26h-4.71l-5.53-7.59-2.06 2.14v5.45h-3.92zm36.47 0h13.42v3.49H692v3.62h8.4v3.49H692v3.74h9.67v3.49h-13.59zm39.09 3.62h-5.43v-3.62h14.77v3.62h-5.42v14.21h-3.92zm30.4-3.62h3.92v17.83h-3.92zm26.26 0h3.61l8.36 11v-11h3.87v17.83h-3.34L787.7 208v11.33h-3.87zm46.57 18.14a10.08 10.08 0 0 1-3.8-.69 8.93 8.93 0 0 1-3-1.91 8.74 8.74 0 0 1-1.92-2.9 9.63 9.63 0 0 1-.69-3.67 9.12 9.12 0 0 1 5.61-8.5 9.48 9.48 0 0 1 3.74-.72 12.21 12.21 0 0 1 2.18.17 9.89 9.89 0 0 1 1.82.47 8.21 8.21 0 0 1 1.58.76 12.57 12.57 0 0 1 1.42 1l-2.47 3a9.61 9.61 0 0 0-1-.76 6.64 6.64 0 0 0-1-.56 6.9 6.9 0 0 0-1.19-.36 7.53 7.53 0 0 0-1.4-.12 4.68 4.68 0 0 0-2 .44 5.4 5.4 0 0 0-2.72 3 5.72 5.72 0 0 0-.4 2.16 6.14 6.14 0 0 0 .4 2.26 5.23 5.23 0 0 0 2.82 3 5.5 5.5 0 0 0 2.18.42 6.15 6.15 0 0 0 3.69-1.08v-2.6h-3.94V209H838v7.74a13.16 13.16 0 0 1-3.27 2 10.85 10.85 0 0 1-4.33.85z"/><path class="cls-1" d="M194.75 48.93h31.7c25.55 0 43.2 17.53 43.2 40.41v.23c0 22.88-17.65 40.64-43.2 40.64h-31.7zm31.7 65.14c14.63 0 24.5-9.87 24.5-24.27v-.23c0-14.4-9.87-24.5-24.5-24.5h-13.82v49zm109.27-15.91l-31.24-49.23h20.9l19.39 32.63 19.74-32.63h20.32L353.6 97.82v32.39h-17.88zm85.46 20.21l10.56-12.66c7.32 6 15 9.87 24.27 9.87 7.32 0 11.73-2.9 11.73-7.66v-.23c0-4.53-2.79-6.86-16.37-10.34-16.37-4.18-26.94-8.71-26.94-24.85v-.23c0-14.75 11.84-24.5 28.45-24.5a47.06 47.06 0 0 1 30.19 10.33l-9.29 13.47c-7.2-5-14.28-8-21.14-8s-10.45 3.14-10.45 7.08v.24c0 5.34 3.49 7.08 17.54 10.68 16.49 4.3 25.78 10.22 25.78 24.38v.24c0 16.14-12.31 25.19-29.85 25.19a51.69 51.69 0 0 1-34.48-13.01zm107.99 0l10.56-12.66c7.32 6 15 9.87 24.27 9.87 7.32 0 11.73-2.9 11.73-7.66v-.23c0-4.53-2.79-6.86-16.37-10.34-16.36-4.18-26.94-8.71-26.94-24.85v-.23c0-14.75 11.84-24.5 28.45-24.5a47.06 47.06 0 0 1 30.19 10.33l-9.29 13.47c-7.2-5-14.28-8-21.14-8s-10.45 3.14-10.45 7.08v.24c0 5.34 3.49 7.08 17.54 10.68 16.49 4.3 25.78 10.22 25.78 24.38v.24c0 16.14-12.31 25.19-29.85 25.19a51.69 51.69 0 0 1-34.48-13.01zM785.2 98.16L754 48.93h20.91l19.39 32.63L814 48.93h20.32l-31.24 48.89v32.39H785.2z"/><path class="cls-2" d="M643.78 48.59h61.19v15.92h-61.19zm0 32.89h61.19V97.4h-61.19zm0 32.89h61.19v15.92h-61.19z"/></g></g></svg>