<svg xmlns="http://www.w3.org/2000/svg" viewBox="0 0 379.18 376.48"><g data-name="Layer 2"><g data-name="Layer 1"><path d="M338.9 209.44l40.28-18.9-39.36-18.47a145.12 145.12 0 0 0-26.36-71l-43.32 56.45a96.34 96.34 0 0 1 4.71 29.94v.81c0 48.94-35.07 88.9-85.64 88.9s-86.45-40.78-86.45-89.71v-.82c0-48.93 35.07-88.9 85.64-88.9a86.12 86.12 0 0 1 36 7.68l50.41-41.14a153.17 153.17 0 0 0-67-23.43L188.66 0l-19.23 41c-72.6 8.52-125 63.53-131.61 131.82L0 190.54l38.47 18.05c8.78 65.55 59.72 117.19 130.23 125.35l20 42.54 20-42.61c69.69-8.38 120.71-59.72 130.2-124.43z"/><path fill="#ec1c24" d="M157.19 221.08l14-50.79 172.8-136.01-136.01 172.8-50.79 14z"/><circle cx="189.59" cy="188.24" r="11.18" fill="#fff"/></g></g></svg>